# xmcd
#
# Track frame offsets: 
#        183
#        13060
#        27400
#        50605
#        66005
#        79828
#        94625
#        109215
#        125138
#        139055
#        155108
#        169750
#        182303
#        198045
#        210855
#        225843
#        239373
#        252765
#        266110
#        282335
#
# Disc length: 3954 seconds
#
# Revision: 5
# Processed by: cddbd v1.5.2PL0 Copyright (c) Steve Scherf et al.
# Submitted via: ExactAudioCopy v0.95b4
#
DISCID=100f7014
DTITLE=Various Artist - Big Band Jazz - Volume III
DYEAR=1983
DGENRE=Jazz
TTITLE0=Count Basie and his Orchestra - Volcano
TTITLE1=Count Basie and his Orchestra - 9:20 Special
TTITLE2=Count Basie and his Orchestra - Shiny Stockings
TTITLE3=Charlie Barnet and his Orchestra - Cherokee
TTITLE4=Charlie Barnet and his Orchestra - Skyliner
TTITLE5=Artie Shaw and his Orchestra - Begin the Beguine
TTITLE6=Artie Shaw and his Orchestra - Rose Room
TTITLE7=Artie Shaw and his Orchestra - Star Dust
TTITLE8=Glenn Miller and his Orchestra - I Got Rhythm
TTITLE9=Glenn Miller and his Orchestra - In the Mood
TTITLE10=Glenn Miller and his Orchestra - A String of Pearls
TTITLE11=Harry James and his Orchestra - The Mole
TTITLE12=Harry James and his Orchestra - Friar Rock
TTITLE13=Benny Carter and his Orchestra - Shufflebug Shuffle
TTITLE14=Erskine Hawkins and his Orchestra - Tuxedo Junction
TTITLE15=Erskine Hawkins and his Orchestra - Midnight Stroll
TTITLE16=Duke Ellington and his Famous Orchestra - A Gypsy without a S
TTITLE16=ong
TTITLE17=Duke Ellington and his Famous Orchestra - Take the "A" Train
TTITLE18=Duke Ellington and his Famous Orchestra - Just A-Sittin' and 
TTITLE18=A-Rockin' 
TTITLE19=Duke Ellington and his Famous Orchestra - Perdido
EXTD=
EXTT0=
EXTT1=
EXTT2=
EXTT3=
EXTT4=
EXTT5=
EXTT6=
EXTT7=
EXTT8=
EXTT9=
EXTT10=
EXTT11=
EXTT12=
EXTT13=
EXTT14=
EXTT15=
EXTT16=
EXTT17=
EXTT18=
EXTT19=
PLAYORDER=
